<?xml version="1.0" encoding="UTF-8" standalone="no"?>
<!DOCTYPE svg PUBLIC "-//W3C//DTD SVG 1.1//EN"
 "http://www.w3.org/Graphics/SVG/1.1/DTD/svg11.dtd">
<!-- Generated by graphviz version 12.2.1 (20241206.2353)
 -->
<!-- Pages: 1 -->
<svg width="840pt" height="127pt"
 viewBox="0.00 0.00 839.75 127.00" xmlns="http://www.w3.org/2000/svg" xmlns:xlink="http://www.w3.org/1999/xlink">
<g id="graph0" class="graph" transform="scale(1 1) rotate(0) translate(4 123)">
<polygon fill="white" stroke="none" points="-4,4 -4,-123 835.75,-123 835.75,4 -4,4"/>
<!-- 2383231460432 -->
<g id="node1" class="node">
<title>2383231460432</title>
<polygon fill="none" stroke="black" points="332.62,-82.5 332.62,-118.5 516.38,-118.5 516.38,-82.5 332.62,-82.5"/>
<text text-anchor="middle" x="344" y="-95.7" font-family="Times New Roman,serif" font-size="14.00">b</text>
<polyline fill="none" stroke="black" points="355.38,-83 355.38,-118.5"/>
<text text-anchor="middle" x="395.25" y="-95.7" font-family="Times New Roman,serif" font-size="14.00">data 1.0000</text>
<polyline fill="none" stroke="black" points="435.12,-83 435.12,-118.5"/>
<text text-anchor="middle" x="475.75" y="-95.7" font-family="Times New Roman,serif" font-size="14.00">grad 1.0000</text>
</g>
<!-- 2383231459808+ -->
<g id="node7" class="node">
<title>2383231459808+</title>
<ellipse fill="none" stroke="black" cx="581.25" cy="-72.5" rx="27" ry="18"/>
<text text-anchor="middle" x="581.25" y="-67.45" font-family="Times New Roman,serif" font-size="14.00">+</text>
</g>
<!-- 2383231460432&#45;&gt;2383231459808+ -->
<g id="edge4" class="edge">
<title>2383231460432&#45;&gt;2383231459808+</title>
<path fill="none" stroke="black" d="M516.86,-83.97C526.29,-82.26 535.43,-80.61 543.7,-79.11"/>
<polygon fill="black" stroke="black" points="544.05,-82.61 553.26,-77.38 542.8,-75.72 544.05,-82.61"/>
</g>
<!-- 2383230667424 -->
<g id="node2" class="node">
<title>2383230667424</title>
<polygon fill="none" stroke="black" points="0,-55.5 0,-91.5 204.75,-91.5 204.75,-55.5 0,-55.5"/>
<text text-anchor="middle" x="21.88" y="-68.7" font-family="Times New Roman,serif" font-size="14.00">input</text>
<polyline fill="none" stroke="black" points="43.75,-56 43.75,-91.5"/>
<text text-anchor="middle" x="83.62" y="-68.7" font-family="Times New Roman,serif" font-size="14.00">data 2.0000</text>
<polyline fill="none" stroke="black" points="123.5,-56 123.5,-91.5"/>
<text text-anchor="middle" x="164.12" y="-68.7" font-family="Times New Roman,serif" font-size="14.00">grad 5.0000</text>
</g>
<!-- 2383231457168* -->
<g id="node5" class="node">
<title>2383231457168*</title>
<ellipse fill="none" stroke="black" cx="267.75" cy="-45.5" rx="27" ry="18"/>
<text text-anchor="middle" x="267.75" y="-40.45" font-family="Times New Roman,serif" font-size="14.00">*</text>
</g>
<!-- 2383230667424&#45;&gt;2383231457168* -->
<g id="edge5" class="edge">
<title>2383230667424&#45;&gt;2383231457168*</title>
<path fill="none" stroke="black" d="M204.98,-56.09C213.86,-54.56 222.4,-53.1 230.16,-51.77"/>
<polygon fill="black" stroke="black" points="230.5,-55.26 239.77,-50.12 229.32,-48.36 230.5,-55.26"/>
</g>
<!-- 2383230664928 -->
<g id="node3" class="node">
<title>2383230664928</title>
<polygon fill="none" stroke="black" points="9,-0.5 9,-36.5 195.75,-36.5 195.75,-0.5 9,-0.5"/>
<text text-anchor="middle" x="21.88" y="-13.7" font-family="Times New Roman,serif" font-size="14.00">w</text>
<polyline fill="none" stroke="black" points="34.75,-1 34.75,-36.5"/>
<text text-anchor="middle" x="74.62" y="-13.7" font-family="Times New Roman,serif" font-size="14.00">data 5.0000</text>
<polyline fill="none" stroke="black" points="114.5,-1 114.5,-36.5"/>
<text text-anchor="middle" x="155.12" y="-13.7" font-family="Times New Roman,serif" font-size="14.00">grad 2.0000</text>
</g>
<!-- 2383230664928&#45;&gt;2383231457168* -->
<g id="edge6" class="edge">
<title>2383230664928&#45;&gt;2383231457168*</title>
<path fill="none" stroke="black" d="M196.04,-33.81C207.95,-35.78 219.54,-37.7 229.77,-39.39"/>
<polygon fill="black" stroke="black" points="229.17,-42.84 239.61,-41.01 230.31,-35.93 229.17,-42.84"/>
</g>
<!-- 2383231457168 -->
<g id="node4" class="node">
<title>2383231457168</title>
<polygon fill="none" stroke="black" points="330.75,-27.5 330.75,-63.5 518.25,-63.5 518.25,-27.5 330.75,-27.5"/>
<text text-anchor="middle" x="340.62" y="-40.7" font-family="Times New Roman,serif" font-size="14.00"> </text>
<polyline fill="none" stroke="black" points="350.5,-28 350.5,-63.5"/>
<text text-anchor="middle" x="393.75" y="-40.7" font-family="Times New Roman,serif" font-size="14.00">data 10.0000</text>
<polyline fill="none" stroke="black" points="437,-28 437,-63.5"/>
<text text-anchor="middle" x="477.62" y="-40.7" font-family="Times New Roman,serif" font-size="14.00">grad 1.0000</text>
</g>
<!-- 2383231457168&#45;&gt;2383231459808+ -->
<g id="edge3" class="edge">
<title>2383231457168&#45;&gt;2383231459808+</title>
<path fill="none" stroke="black" d="M518.64,-61.75C527.4,-63.28 535.88,-64.76 543.59,-66.1"/>
<polygon fill="black" stroke="black" points="542.72,-69.51 553.18,-67.78 543.93,-62.61 542.72,-69.51"/>
</g>
<!-- 2383231457168*&#45;&gt;2383231457168 -->
<g id="edge1" class="edge">
<title>2383231457168*&#45;&gt;2383231457168</title>
<path fill="none" stroke="black" d="M295,-45.5C302.16,-45.5 310.37,-45.5 319.1,-45.5"/>
<polygon fill="black" stroke="black" points="318.89,-49 328.89,-45.5 318.89,-42 318.89,-49"/>
</g>
<!-- 2383231459808 -->
<g id="node6" class="node">
<title>2383231459808</title>
<polygon fill="none" stroke="black" points="644.25,-54.5 644.25,-90.5 831.75,-90.5 831.75,-54.5 644.25,-54.5"/>
<text text-anchor="middle" x="654.12" y="-67.7" font-family="Times New Roman,serif" font-size="14.00"> </text>
<polyline fill="none" stroke="black" points="664,-55 664,-90.5"/>
<text text-anchor="middle" x="707.25" y="-67.7" font-family="Times New Roman,serif" font-size="14.00">data 11.0000</text>
<polyline fill="none" stroke="black" points="750.5,-55 750.5,-90.5"/>
<text text-anchor="middle" x="791.12" y="-67.7" font-family="Times New Roman,serif" font-size="14.00">grad 1.0000</text>
</g>
<!-- 2383231459808+&#45;&gt;2383231459808 -->
<g id="edge2" class="edge">
<title>2383231459808+&#45;&gt;2383231459808</title>
<path fill="none" stroke="black" d="M608.5,-72.5C615.66,-72.5 623.87,-72.5 632.6,-72.5"/>
<polygon fill="black" stroke="black" points="632.39,-76 642.39,-72.5 632.39,-69 632.39,-76"/>
</g>
</g>
</svg>
